<svg width="134" height="133" viewBox="0 0 134 133" fill="none" xmlns="http://www.w3.org/2000/svg">
<path d="M115.401 66.6829C115.401 93.1909 93.8502 114.684 67.271 114.684C40.6919 114.684 19.0859 93.1908 19.0859 66.6829C19.0859 40.175 40.6366 18.627 67.271 18.627C93.9055 18.627 115.401 40.1199 115.401 66.6829Z" fill="url(#paint0_linear_2330_3361)"/>
<g style="mix-blend-mode:multiply">
<path d="M115.401 66.6829C115.401 93.1909 93.8502 114.739 67.271 114.739C40.6919 114.739 19.0859 93.246 19.0859 66.6829C19.0859 40.1199 40.6366 18.627 67.271 18.627C93.9055 18.627 115.401 40.1199 115.401 66.6829Z" fill="#8393AC"/>
<path opacity="0.98" d="M115.235 66.6826C115.235 93.1354 93.7396 114.573 67.2156 114.573C40.6917 114.573 19.1963 93.1354 19.1963 66.6826C19.1963 40.2298 40.6917 18.792 67.2156 18.792C93.7396 18.792 115.235 40.2298 115.235 66.6826Z" fill="#8595AD"/>
<path opacity="0.96" d="M115.125 66.6828C115.125 93.0254 93.6845 114.408 67.2711 114.408C40.8577 114.408 19.3623 93.0254 19.3623 66.6828C19.3623 40.3402 40.8025 18.9023 67.2711 18.9023C93.7398 18.9023 115.125 40.285 115.125 66.6828Z" fill="#8797AF"/>
<path opacity="0.95" d="M114.959 66.6825C114.959 92.97 93.5739 114.298 67.2157 114.298C40.8576 114.298 19.4727 92.97 19.4727 66.6825C19.4727 40.395 40.8576 19.0674 67.2157 19.0674C93.5739 19.0674 114.959 40.395 114.959 66.6825Z" fill="#8A99B0"/>
<path opacity="0.93" d="M114.848 66.6831C114.848 92.8604 93.5735 114.133 67.2706 114.133C40.9677 114.133 19.6934 92.8604 19.6934 66.6831C19.6934 40.5059 41.023 19.2334 67.2706 19.2334C93.5183 19.2334 114.848 40.5059 114.848 66.6831Z" fill="#8C9BB2"/>
<path opacity="0.91" d="M114.683 66.6823C114.683 92.8045 93.4634 114.022 67.2158 114.022C40.9682 114.022 19.749 92.8045 19.749 66.6823C19.749 40.5601 41.0234 19.3428 67.2158 19.3428C93.4082 19.3428 114.683 40.505 114.683 66.6823Z" fill="#8E9DB3"/>
<path opacity="0.89" d="M114.572 66.683C114.572 92.7501 93.4078 113.857 67.2707 113.857C41.1336 113.857 19.9697 92.6949 19.9697 66.683C19.9697 40.6711 41.1336 19.5088 67.2707 19.5088C93.4078 19.5088 114.572 40.6159 114.572 66.683Z" fill="#909FB5"/>
<path opacity="0.88" d="M114.406 66.6831C114.406 92.6399 93.2977 113.747 67.2159 113.747C41.134 113.747 20.0254 92.6951 20.0254 66.6831C20.0254 40.6712 41.134 19.6191 67.2159 19.6191C93.2977 19.6191 114.406 40.6712 114.406 66.6831Z" fill="#93A1B6"/>
<path opacity="0.86" d="M114.295 66.6828C114.295 92.5846 93.2421 113.581 67.2708 113.581C41.2994 113.581 20.2461 92.5846 20.2461 66.6828C20.2461 40.7811 41.2994 19.7842 67.2708 19.7842C93.2421 19.7842 114.295 40.7811 114.295 66.6828Z" fill="#95A2B8"/>
<path opacity="0.84" d="M114.13 66.683C114.13 92.4745 93.132 113.471 67.2159 113.471C41.2999 113.471 20.3018 92.5296 20.3018 66.683C20.3018 40.8364 41.2999 19.8945 67.2159 19.8945C93.132 19.8945 114.13 40.8364 114.13 66.683Z" fill="#97A4B9"/>
<path opacity="0.82" d="M113.965 66.6827C113.965 92.4191 93.0218 113.306 67.2162 113.306C41.4106 113.306 20.4678 92.4191 20.4678 66.6827C20.4678 40.9463 41.4106 20.0596 67.2162 20.0596C93.0218 20.0596 113.965 40.9463 113.965 66.6827Z" fill="#99A6BB"/>
<path opacity="0.8" d="M113.853 66.6828C113.853 92.3641 92.9657 113.196 67.2707 113.196C41.5757 113.196 20.6328 92.3641 20.6328 66.6828C20.6328 41.0015 41.5204 20.1699 67.2707 20.1699C93.021 20.1699 113.853 41.0015 113.853 66.6828Z" fill="#9BA8BC"/>
<path opacity="0.79" d="M113.687 66.6825C113.687 92.2536 92.9103 113.03 67.2153 113.03C41.5202 113.03 20.7432 92.2536 20.7432 66.6825C20.7432 41.1114 41.5755 20.335 67.2153 20.335C92.8551 20.335 113.687 41.1114 113.687 66.6825Z" fill="#9EAABE"/>
<path opacity="0.77" d="M113.577 66.6826C113.577 92.1986 92.8553 112.865 67.2708 112.865C41.6862 112.865 20.9092 92.1986 20.9092 66.6826C20.9092 41.1667 41.631 20.4453 67.2708 20.4453C92.9106 20.4453 113.577 41.1116 113.577 66.6826Z" fill="#A0ACBF"/>
<path opacity="0.75" d="M113.411 66.6833C113.411 92.0891 92.7446 112.755 67.2154 112.755C41.6861 112.755 21.0195 92.1442 21.0195 66.6833C21.0195 41.2225 41.6861 20.6113 67.2154 20.6113C92.7446 20.6113 113.411 41.2225 113.411 66.6833Z" fill="#A2AEC1"/>
<path opacity="0.73" d="M113.301 66.683C113.301 92.0337 92.69 112.59 67.2713 112.59C41.8525 112.59 21.2412 92.0337 21.2412 66.683C21.2412 41.3324 41.8525 20.7764 67.2713 20.7764C92.69 20.7764 113.301 41.3324 113.301 66.683Z" fill="#A4B0C2"/>
<path opacity="0.71" d="M113.135 66.6832C113.135 91.9787 92.5789 112.48 67.2154 112.48C41.8519 112.48 21.2959 91.9787 21.2959 66.6832C21.2959 41.3877 41.8519 20.8867 67.2154 20.8867C92.5789 20.8867 113.135 41.3877 113.135 66.6832Z" fill="#A6B2C4"/>
<path opacity="0.7" d="M113.025 66.6829C113.025 91.8682 92.5243 112.314 67.2713 112.314C42.0183 112.314 21.5176 91.8682 21.5176 66.6829C21.5176 41.4976 42.0183 21.0518 67.2713 21.0518C92.5243 21.0518 113.025 41.4976 113.025 66.6829Z" fill="#A9B4C5"/>
<path opacity="0.68" d="M112.859 66.683C112.859 91.8132 92.4132 112.204 67.2155 112.204C42.0178 112.204 21.5723 91.8132 21.5723 66.683C21.5723 41.5528 42.0178 21.1621 67.2155 21.1621C92.4132 21.1621 112.859 41.5528 112.859 66.683Z" fill="#ABB6C7"/>
<path opacity="0.66" d="M112.749 66.6827C112.749 91.7027 92.4139 112.038 67.2714 112.038C42.1289 112.038 21.7939 91.7027 21.7939 66.6827C21.7939 41.6628 42.1842 21.3271 67.2714 21.3271C92.3586 21.3271 112.749 41.6628 112.749 66.6827Z" fill="#ADB8C8"/>
<path opacity="0.64" d="M112.583 66.6828C112.583 91.6477 92.3032 111.928 67.2712 111.928C42.2393 111.928 21.9043 91.7028 21.9043 66.6828C21.9043 41.6629 42.184 21.4375 67.2712 21.4375C92.3585 21.4375 112.583 41.6629 112.583 66.6828Z" fill="#AFBACA"/>
<path opacity="0.62" d="M112.417 66.6826C112.417 91.5923 92.1925 111.763 67.2158 111.763C42.2391 111.763 22.0146 91.5923 22.0146 66.6826C22.0146 41.7728 42.2391 21.6025 67.2158 21.6025C92.1925 21.6025 112.417 41.7728 112.417 66.6826Z" fill="#B2BCCB"/>
<path opacity="0.61" d="M112.307 66.6827C112.307 91.4822 92.1375 111.597 67.2713 111.597C42.4051 111.597 22.1807 91.4822 22.1807 66.6827C22.1807 41.8832 42.3499 21.7129 67.2713 21.7129C92.1928 21.7129 112.307 41.8281 112.307 66.6827Z" fill="#B4BDCD"/>
<path opacity="0.59" d="M112.141 66.6824C112.141 91.4268 92.0268 111.487 67.2159 111.487C42.405 111.487 22.291 91.4268 22.291 66.6824C22.291 41.938 42.405 21.8779 67.2159 21.8779C92.0268 21.8779 112.141 41.938 112.141 66.6824Z" fill="#B6BFCE"/>
<path opacity="0.57" d="M112.03 66.6825C112.03 91.3167 91.9712 111.322 67.2708 111.322C42.5704 111.322 22.5117 91.3167 22.5117 66.6825C22.5117 42.0483 42.5704 21.9883 67.2708 21.9883C91.9712 21.9883 112.03 41.9932 112.03 66.6825Z" fill="#B8C1D0"/>
<path opacity="0.55" d="M111.865 66.6832C111.865 91.2623 91.8611 111.212 67.216 111.212C42.5708 111.212 22.5674 91.2623 22.5674 66.6832C22.5674 42.1041 42.5708 22.1543 67.216 22.1543C91.8611 22.1543 111.865 42.1041 111.865 66.6832Z" fill="#BAC3D1"/>
<path opacity="0.54" d="M111.754 66.6829C111.754 91.2069 91.8608 111.046 67.2709 111.046C42.681 111.046 22.7881 91.1518 22.7881 66.6829C22.7881 42.2141 42.7363 22.3193 67.2709 22.3193C91.8055 22.3193 111.754 42.2141 111.754 66.6829Z" fill="#BDC5D3"/>
<path opacity="0.52" d="M111.588 66.683C111.588 91.0968 91.7507 110.936 67.2161 110.936C42.6814 110.936 22.8437 91.1519 22.8437 66.683C22.8437 42.2142 42.6814 22.4297 67.2161 22.4297C91.7507 22.4297 111.588 42.2142 111.588 66.683Z" fill="#BFC7D4"/>
<path opacity="0.5" d="M111.478 66.6828C111.478 91.0414 91.6951 110.771 67.271 110.771C42.8469 110.771 23.0645 91.0414 23.0645 66.6828C23.0645 42.3241 42.8469 22.5947 67.271 22.5947C91.6951 22.5947 111.478 42.3241 111.478 66.6828Z" fill="#C1C9D6"/>
<path opacity="0.48" d="M111.312 66.6829C111.312 90.9313 91.5844 110.661 67.2708 110.661C42.9572 110.661 23.1748 90.9864 23.1748 66.6829C23.1748 42.3794 42.902 22.7051 67.2708 22.7051C91.6397 22.7051 111.312 42.3794 111.312 66.6829Z" fill="#C3CBD7"/>
<path opacity="0.46" d="M111.146 66.6826C111.146 90.8759 91.4737 110.495 67.2154 110.495C42.9571 110.495 23.2852 90.8759 23.2852 66.6826C23.2852 42.4893 42.9571 22.8701 67.2154 22.8701C91.4737 22.8701 111.146 42.4893 111.146 66.6826Z" fill="#C5CDD8"/>
<path opacity="0.45" d="M111.035 66.6827C111.035 90.8209 91.4187 110.33 67.2709 110.33C43.1231 110.33 23.4512 90.7658 23.4512 66.6827C23.4512 42.5996 43.0678 22.9805 67.2709 22.9805C91.474 22.9805 111.035 42.5445 111.035 66.6827Z" fill="#C8CFDA"/>
<path opacity="0.43" d="M110.869 66.6824C110.869 90.7104 91.308 110.219 67.2155 110.219C43.1229 110.219 23.5615 90.7104 23.5615 66.6824C23.5615 42.6545 43.1229 23.1455 67.2155 23.1455C91.308 23.1455 110.869 42.6545 110.869 66.6824Z" fill="#CAD1DB"/>
<path opacity="0.41" d="M110.759 66.6826C110.759 90.6555 91.253 110.054 67.271 110.054C43.2889 110.054 23.7275 90.6003 23.7275 66.6826C23.7275 42.7648 43.2337 23.2559 67.271 23.2559C91.3083 23.2559 110.759 42.7097 110.759 66.6826Z" fill="#CCD3DD"/>
<path opacity="0.39" d="M110.593 66.6833C110.593 90.5459 91.1976 109.945 67.2156 109.945C43.2335 109.945 23.8379 90.601 23.8379 66.6833C23.8379 42.7655 43.2335 23.4219 67.2156 23.4219C91.1976 23.4219 110.593 42.7655 110.593 66.6833Z" fill="#CED5DE"/>
<path opacity="0.38" d="M110.483 66.683C110.483 90.4905 91.143 109.779 67.2714 109.779C43.3999 109.779 24.0596 90.4905 24.0596 66.683C24.0596 42.8754 43.3999 23.5869 67.2714 23.5869C91.143 23.5869 110.483 42.8754 110.483 66.683Z" fill="#D1D7E0"/>
<path opacity="0.36" d="M110.317 66.6831C110.317 90.4355 91.0319 109.669 67.2156 109.669C43.3994 109.669 24.1143 90.4355 24.1143 66.6831C24.1143 42.9307 43.3994 23.6973 67.2156 23.6973C91.0319 23.6973 110.317 42.9307 110.317 66.6831Z" fill="#D3D8E1"/>
<path opacity="0.34" d="M110.206 66.6828C110.206 90.325 90.9763 109.503 67.2706 109.503C43.5648 109.503 24.335 90.325 24.335 66.6828C24.335 43.0406 43.5648 23.8623 67.2706 23.8623C90.9763 23.8623 110.206 43.0406 110.206 66.6828Z" fill="#D5DAE3"/>
<path opacity="0.32" d="M110.041 66.6829C110.041 90.27 90.8662 109.393 67.2157 109.393C43.5652 109.393 24.3906 90.27 24.3906 66.6829C24.3906 43.0958 43.5652 23.9727 67.2157 23.9727C90.8662 23.9727 110.041 43.0958 110.041 66.6829Z" fill="#D7DCE4"/>
<path opacity="0.3" d="M109.875 66.6827C109.875 90.1595 90.7559 109.228 67.2159 109.228C43.676 109.228 24.5566 90.1595 24.5566 66.6827C24.5566 43.2058 43.676 24.1377 67.2159 24.1377C90.7559 24.1377 109.875 43.2058 109.875 66.6827Z" fill="#D9DEE6"/>
<path opacity="0.29" d="M109.765 66.6828C109.765 90.1046 90.7562 109.062 67.2714 109.062C43.7867 109.062 24.7227 90.1046 24.7227 66.6828C24.7227 43.261 43.7867 24.248 67.2714 24.248C90.7562 24.248 109.765 43.261 109.765 66.6828Z" fill="#DCE0E7"/>
<path opacity="0.27" d="M109.599 66.6825C109.599 90.0492 90.6455 108.952 67.216 108.952C43.7866 108.952 24.833 90.0492 24.833 66.6825C24.833 43.3158 43.7866 24.4131 67.216 24.4131C90.6455 24.4131 109.599 43.3158 109.599 66.6825Z" fill="#DEE2E9"/>
<path opacity="0.25" d="M109.488 66.6826C109.488 89.9391 90.5895 108.787 67.2705 108.787C43.9516 108.787 24.998 89.9391 24.998 66.6826C24.998 43.4262 43.8963 24.5234 67.2705 24.5234C90.6447 24.5234 109.488 43.3711 109.488 66.6826Z" fill="#E0E4EA"/>
<path opacity="0.23" d="M109.323 66.6823C109.323 89.8837 90.4798 108.676 67.2161 108.676C43.9524 108.676 25.1094 89.8837 25.1094 66.6823C25.1094 43.481 43.9524 24.6885 67.2161 24.6885C90.4798 24.6885 109.323 43.481 109.323 66.6823Z" fill="#E2E6EC"/>
<path opacity="0.21" d="M109.212 66.6835C109.212 89.7746 90.4242 108.512 67.271 108.512C44.1178 108.512 25.3301 89.7746 25.3301 66.6835C25.3301 43.5923 44.1178 24.7998 67.271 24.7998C90.4242 24.7998 109.212 43.5372 109.212 66.6835Z" fill="#E4E8ED"/>
<path opacity="0.2" d="M109.047 66.6831C109.047 89.7191 90.3141 108.401 67.2162 108.401C44.1183 108.401 25.3857 89.7191 25.3857 66.6831C25.3857 43.6471 44.1183 24.9648 67.2162 24.9648C90.3141 24.9648 109.047 43.6471 109.047 66.6831Z" fill="#E7EAEF"/>
<path opacity="0.18" d="M108.936 66.6829C108.936 89.6086 90.2585 108.236 67.2711 108.236C44.2837 108.236 25.6064 89.6086 25.6064 66.6829C25.6064 43.7571 44.2837 25.1299 67.2711 25.1299C90.2585 25.1299 108.936 43.7571 108.936 66.6829Z" fill="#E9ECF0"/>
<path opacity="0.16" d="M108.77 66.683C108.77 89.5537 90.1484 108.126 67.2163 108.126C44.2841 108.126 25.6621 89.5537 25.6621 66.683C25.6621 43.8123 44.2841 25.2402 67.2163 25.2402C90.1484 25.2402 108.77 43.8123 108.77 66.683Z" fill="#EBEEF2"/>
<path opacity="0.14" d="M108.66 66.6827C108.66 89.4983 90.1481 107.96 67.2712 107.96C44.3943 107.96 25.8828 89.4983 25.8828 66.6827C25.8828 43.8671 44.3943 25.4053 67.2712 25.4053C90.1481 25.4053 108.66 43.9223 108.66 66.6827Z" fill="#EDF0F3"/>
<path opacity="0.12" d="M108.494 66.6828C108.494 89.3882 90.0374 107.795 67.271 107.795C44.5046 107.795 25.9932 89.3882 25.9932 66.6828C25.9932 43.9775 44.4494 25.5156 67.271 25.5156C90.0926 25.5156 108.494 43.9224 108.494 66.6828Z" fill="#F0F2F5"/>
<path opacity="0.11" d="M108.328 66.6825C108.328 89.3328 89.9267 107.684 67.2156 107.684C44.5045 107.684 26.1035 89.3328 26.1035 66.6825C26.1035 44.0323 44.5045 25.6807 67.2156 25.6807C89.9267 25.6807 108.328 44.0323 108.328 66.6825Z" fill="#F2F3F6"/>
<path opacity="0.09" d="M108.217 66.6827C108.217 89.2227 89.8717 107.519 67.2711 107.519C44.6705 107.519 26.2695 89.2227 26.2695 66.6827C26.2695 44.1427 44.6152 25.791 67.2711 25.791C89.9269 25.791 108.217 44.0876 108.217 66.6827Z" fill="#F4F5F8"/>
<path opacity="0.07" d="M108.051 66.6824C108.051 89.1673 89.761 107.409 67.2157 107.409C44.6703 107.409 26.3799 89.1673 26.3799 66.6824C26.3799 44.1975 44.6703 25.9561 67.2157 25.9561C89.761 25.9561 108.051 44.1975 108.051 66.6824Z" fill="#F6F7F9"/>
<path opacity="0.05" d="M107.941 66.6825C107.941 89.1123 89.7054 107.244 67.2706 107.244C44.8358 107.244 26.6006 89.0572 26.6006 66.6825C26.6006 44.3078 44.8358 26.0664 67.2706 26.0664C89.7054 26.0664 107.941 44.2527 107.941 66.6825Z" fill="#F8F9FB"/>
<path opacity="0.04" d="M107.775 66.6832C107.775 89.0028 89.5953 107.134 67.2157 107.134C44.8362 107.134 26.6562 89.0579 26.6562 66.6832C26.6562 44.3085 44.8362 26.2324 67.2157 26.2324C89.5953 26.2324 107.775 44.3636 107.775 66.6832Z" fill="#FBFBFC"/>
<path opacity="0.02" d="M107.664 66.6823C107.664 88.9468 89.595 106.968 67.2707 106.968C44.9464 106.968 26.877 88.9468 26.877 66.6823C26.877 44.4179 44.9464 26.3418 67.2707 26.3418C89.595 26.3418 107.664 44.4179 107.664 66.6823Z" fill="#FDFDFE"/>
</g>
<path style="mix-blend-mode:overlay" d="M67.2708 49.9295C83.4614 49.9295 98.4364 52.6299 110.704 57.204C106.559 37.0888 88.711 21.9336 67.2708 21.9336C45.8306 21.9336 27.9823 37.0888 23.8379 57.204C36.0499 52.6299 51.0802 49.9295 67.2708 49.9295Z" fill="url(#paint1_linear_2330_3361)"/>
<path style="mix-blend-mode:overlay" d="M67.2708 81.7282C51.0802 81.7282 36.0499 79.0278 23.8379 74.5088C27.9823 94.624 45.8306 109.779 67.2708 109.779C88.711 109.779 106.559 94.624 110.704 74.5088C98.4364 79.0829 83.4614 81.7282 67.2708 81.7282Z" fill="url(#paint2_linear_2330_3361)"/>
<path d="M67.2702 5.78613C33.5075 5.78613 6.20996 33.0656 6.20996 66.6827C6.20996 100.3 33.5627 127.579 67.2702 127.579C100.978 127.579 128.331 100.3 128.331 66.6827C128.331 33.0656 100.978 5.78613 67.2702 5.78613ZM67.2702 114.794C40.6358 114.794 19.0299 93.2458 19.0299 66.6827C19.0299 40.1197 40.6358 18.5717 67.2702 18.5717C93.9047 18.5717 115.511 40.1197 115.511 66.6827C115.511 93.2458 93.9047 114.794 67.2702 114.794Z" fill="url(#paint3_linear_2330_3361)"/>
<path d="M67.2707 0.550781C30.6346 0.550781 0.960937 30.2 0.960937 66.6828C0.960937 103.166 30.6898 132.815 67.2707 132.815C103.852 132.815 133.581 103.221 133.581 66.6828C133.581 30.1449 103.907 0.550782 67.2707 0.550781ZM67.2707 118.927C38.3154 118.927 14.886 95.5605 14.886 66.6828C14.886 37.8052 38.3154 14.4385 67.2707 14.4385C96.226 14.4385 119.655 37.8603 119.655 66.6828C119.655 95.5054 96.226 118.927 67.2707 118.927Z" fill="url(#paint4_linear_2330_3361)"/>
<path d="M67.2705 2.64453C31.7948 2.64453 3.06055 31.3018 3.06055 66.6824C3.06055 102.063 31.7948 130.72 67.2705 130.72C102.746 130.72 131.481 102.063 131.481 66.6824C131.481 31.3018 102.746 2.64453 67.2705 2.64453ZM67.2705 117.273C39.2546 117.273 16.5435 94.6232 16.5435 66.6824C16.5435 38.7416 39.2546 16.0914 67.2705 16.0914C95.2864 16.0914 117.998 38.7416 117.998 66.6824C117.998 94.6232 95.2864 117.273 67.2705 117.273Z" fill="url(#paint5_linear_2330_3361)"/>
<path style="mix-blend-mode:overlay" d="M53.5669 53.677C45.5545 61.668 35.8291 64.8644 31.8505 60.8964C27.8719 56.8734 31.0769 47.174 39.0893 39.2382C47.1017 31.2472 56.8272 28.0508 60.8058 32.0188C64.7843 36.0418 61.5794 45.7412 53.5669 53.677Z" fill="url(#paint6_linear_2330_3361)"/>
<g style="mix-blend-mode:overlay" opacity="0.7">
<path d="M66.8842 117.329C94.9001 117.329 117.611 94.679 117.611 66.7382C117.611 66.5728 117.611 66.4075 117.611 66.2422C117.335 93.9625 94.7343 116.282 66.8842 116.282C39.0341 116.282 16.4888 93.9074 16.1572 66.2422C16.1572 66.4075 16.1572 66.5728 16.1572 66.7382C16.1572 94.679 38.8683 117.329 66.8842 117.329Z" fill="white"/>
</g>
<g style="mix-blend-mode:overlay" opacity="0.7">
<path d="M67.2705 1.9834C31.5185 1.9834 2.39746 31.0264 2.39746 66.6826C2.39746 102.339 31.4632 131.382 67.2705 131.382C103.078 131.382 132.144 102.339 132.144 66.6826C132.144 31.0264 103.023 1.9834 67.2705 1.9834ZM67.2705 130.72C31.7948 130.72 3.06055 102.063 3.06055 66.6826C3.06055 31.3019 31.7948 2.64471 67.2705 2.64471C102.746 2.64471 131.481 31.3019 131.481 66.6826C131.481 102.063 102.746 130.72 67.2705 130.72Z" fill="white"/>
</g>
<g style="mix-blend-mode:overlay">
<path opacity="0.02" d="M98.27 22.3746C98.27 28.6571 83.8477 33.7824 65.9993 33.7824C48.1509 33.7824 33.7285 28.6571 33.7285 22.3746C33.7285 16.092 48.1509 10.9668 65.9993 10.9668C83.8477 10.9668 98.27 16.092 98.27 22.3746Z" fill="white"/>
<path opacity="0.04" d="M97.8841 22.3743C97.8841 28.6017 83.6275 33.6167 66.0002 33.6167C48.3728 33.6167 34.1162 28.6017 34.1162 22.3743C34.1162 16.1468 48.3728 11.1318 66.0002 11.1318C83.6275 11.1318 97.8841 16.1468 97.8841 22.3743Z" fill="white"/>
<path opacity="0.05" d="M97.4967 22.3734C97.4967 28.4907 83.4058 33.5057 66.0548 33.5057C48.7037 33.5057 34.5576 28.5458 34.5576 22.3734C34.5576 16.2011 48.6485 11.2412 66.0548 11.2412C83.4611 11.2412 97.4967 16.2011 97.4967 22.3734Z" fill="white"/>
<path opacity="0.07" d="M97.1102 22.3741C97.1102 28.4362 83.1851 33.341 66.0551 33.341C48.9251 33.341 35 28.4362 35 22.3741C35 16.312 48.9251 11.4072 66.0551 11.4072C83.1851 11.4072 97.1102 16.312 97.1102 22.3741Z" fill="white"/>
<path opacity="0.09" d="M96.7233 22.3743C96.7233 28.3812 82.964 33.2309 66.055 33.2309C49.146 33.2309 35.3867 28.3812 35.3867 22.3743C35.3867 16.3673 49.146 11.5176 66.055 11.5176C82.964 11.5176 96.7233 16.3673 96.7233 22.3743Z" fill="white"/>
<path opacity="0.11" d="M96.2817 22.374C96.2817 28.2707 82.7434 33.0653 66.0002 33.0653C49.257 33.0653 35.7187 28.2707 35.7187 22.374C35.7187 16.4772 49.257 11.6826 66.0002 11.6826C82.7434 11.6826 96.2817 16.4772 96.2817 22.374Z" fill="white"/>
<path opacity="0.12" d="M95.8948 22.3741C95.8948 28.2158 82.5223 32.9552 66.0001 32.9552C49.4779 32.9552 36.1055 28.2158 36.1055 22.3741C36.1055 16.5324 49.4779 11.793 66.0001 11.793C82.5223 11.793 95.8948 16.5324 95.8948 22.3741Z" fill="white"/>
<path opacity="0.14" d="M95.5079 22.3738C95.5079 28.1052 82.3012 32.7896 66.0001 32.7896C49.6989 32.7896 36.4922 28.1052 36.4922 22.3738C36.4922 16.6424 49.6989 11.958 66.0001 11.958C82.3012 11.958 95.5079 16.6424 95.5079 22.3738Z" fill="white"/>
<path opacity="0.16" d="M95.1204 22.3739C95.1204 28.0503 82.0795 32.6795 66.0547 32.6795C50.0298 32.6795 36.9336 28.1054 36.9336 22.3739C36.9336 16.6425 49.9745 12.0684 66.0547 12.0684C82.1348 12.0684 95.1204 16.6976 95.1204 22.3739Z" fill="white"/>
<path opacity="0.18" d="M94.734 22.3736C94.734 27.9949 81.8588 32.5139 66.055 32.5139C50.2511 32.5139 37.376 27.9949 37.376 22.3736C37.376 16.7524 50.2511 12.2334 66.055 12.2334C81.8588 12.2334 94.734 16.7524 94.734 22.3736Z" fill="white"/>
<path opacity="0.2" d="M94.347 22.3743C94.347 27.8853 81.6929 32.3493 66.0549 32.3493C50.4168 32.3493 37.7627 27.8853 37.7627 22.3743C37.7627 16.8633 50.4168 12.3994 66.0549 12.3994C81.6929 12.3994 94.347 16.8633 94.347 22.3743Z" fill="white"/>
<path opacity="0.21" d="M93.9055 22.3735C93.9055 27.8294 81.4171 32.2382 66.0001 32.2382C50.5831 32.2382 38.0947 27.8294 38.0947 22.3735C38.0947 16.9176 50.5831 12.5088 66.0001 12.5088C81.4171 12.5088 93.9055 16.9176 93.9055 22.3735Z" fill="white"/>
<path opacity="0.23" d="M93.5186 22.3742C93.5186 27.7198 81.196 32.0736 66 32.0736C50.804 32.0736 38.4814 27.7198 38.4814 22.3742C38.4814 17.0285 50.804 12.6748 66 12.6748C81.196 12.6748 93.5186 17.0285 93.5186 22.3742Z" fill="white"/>
<path opacity="0.25" d="M93.1311 22.3743C93.1311 27.6649 80.9743 31.9635 66.0546 31.9635C51.1349 31.9635 38.9229 27.6649 38.9229 22.3743C38.9229 17.0837 51.0796 12.7852 66.0546 12.7852C81.0296 12.7852 93.1311 17.0837 93.1311 22.3743Z" fill="white"/>
<path opacity="0.27" d="M92.7446 22.374C92.7446 27.6095 80.7536 31.7978 66.0549 31.7978C51.3563 31.7978 39.3652 27.5544 39.3652 22.374C39.3652 17.1937 51.301 12.9502 66.0549 12.9502C80.8089 12.9502 92.7446 17.1937 92.7446 22.374Z" fill="white"/>
<path opacity="0.29" d="M92.3577 22.3741C92.3577 27.4994 80.5878 31.6877 66.0549 31.6877C51.522 31.6877 39.752 27.4994 39.752 22.3741C39.752 17.2489 51.522 13.0605 66.0549 13.0605C80.5878 13.0605 92.3577 17.2489 92.3577 22.3741Z" fill="white"/>
<path opacity="0.3" d="M91.9161 22.3739C91.9161 27.444 80.3119 31.5221 66.0001 31.5221C51.6882 31.5221 40.084 27.444 40.084 22.3739C40.084 17.3037 51.6882 13.2256 66.0001 13.2256C80.3119 13.2256 91.9161 17.3037 91.9161 22.3739Z" fill="white"/>
<path opacity="0.32" d="M91.5293 22.374C91.5293 27.3339 80.0908 31.412 66 31.412C51.9091 31.412 40.4707 27.389 40.4707 22.374C40.4707 17.359 51.9091 13.3359 66 13.3359C80.0908 13.3359 91.5293 17.359 91.5293 22.374Z" fill="white"/>
<path opacity="0.34" d="M91.1418 22.3737C91.1418 27.2785 79.8691 31.2464 66.0546 31.2464C52.24 31.2464 40.9121 27.2785 40.9121 22.3737C40.9121 17.4689 52.1848 13.501 66.0546 13.501C79.9244 13.501 91.1418 17.4689 91.1418 22.3737Z" fill="white"/>
<path opacity="0.36" d="M90.7553 22.3738C90.7553 27.2235 79.7037 31.1363 66.0549 31.1363C52.4061 31.1363 41.3545 27.2235 41.3545 22.3738C41.3545 17.5241 52.4061 13.6113 66.0549 13.6113C79.7037 13.6113 90.7553 17.5241 90.7553 22.3738Z" fill="white"/>
<path opacity="0.38" d="M90.3684 22.3735C90.3684 27.113 79.4825 30.9707 66.0548 30.9707C52.6271 30.9707 41.7412 27.113 41.7412 22.3735C41.7412 17.6341 52.6271 13.7764 66.0548 13.7764C79.4825 13.7764 90.3684 17.6341 90.3684 22.3735Z" fill="white"/>
<path opacity="0.39" d="M89.9268 22.3742C89.9268 27.0586 79.2067 30.806 66 30.806C52.7933 30.806 42.0732 27.0035 42.0732 22.3742C42.0732 17.745 52.7933 13.9424 66 13.9424C79.2067 13.9424 89.9268 17.745 89.9268 22.3742Z" fill="white"/>
<path opacity="0.41" d="M89.5399 22.3744C89.5399 26.9485 78.9856 30.696 65.9999 30.696C53.0143 30.696 42.46 26.9485 42.46 22.3744C42.46 17.8002 53.0143 14.0527 65.9999 14.0527C78.9856 14.0527 89.5399 17.8002 89.5399 22.3744Z" fill="white"/>
<path opacity="0.43" d="M89.153 22.3741C89.153 26.8931 78.7645 30.5303 65.9998 30.5303C53.2352 30.5303 42.8467 26.8931 42.8467 22.3741C42.8467 17.855 53.2352 14.2178 65.9998 14.2178C78.7645 14.2178 89.153 17.855 89.153 22.3741Z" fill="white"/>
<path opacity="0.45" d="M88.7665 22.3742C88.7665 26.783 78.599 30.4202 66.0554 30.4202C53.5118 30.4202 43.2891 26.8381 43.2891 22.3742C43.2891 17.9103 53.4566 14.3281 66.0554 14.3281C78.6543 14.3281 88.7665 17.9103 88.7665 22.3742Z" fill="white"/>
<path opacity="0.46" d="M88.3791 22.3739C88.3791 26.7276 78.3773 30.2546 66.0548 30.2546C53.7322 30.2546 43.7305 26.7276 43.7305 22.3739C43.7305 18.0202 53.7322 14.4932 66.0548 14.4932C78.3773 14.4932 88.3791 18.0202 88.3791 22.3739Z" fill="white"/>
<path opacity="0.48" d="M87.9922 22.374C87.9922 26.6726 78.1562 30.1445 66.0547 30.1445C53.9531 30.1445 44.1172 26.6726 44.1172 22.374C44.1172 18.0754 53.9531 14.6035 66.0547 14.6035C78.1562 14.6035 87.9922 18.0754 87.9922 22.374Z" fill="white"/>
<path opacity="0.5" d="M87.5506 22.3737C87.5506 26.5621 77.8804 29.9789 65.9999 29.9789C54.1194 29.9789 44.4492 26.5621 44.4492 22.3737C44.4492 18.1854 54.1194 14.7686 65.9999 14.7686C77.8804 14.7686 87.5506 18.1854 87.5506 22.3737Z" fill="white"/>
<path opacity="0.52" d="M87.1637 22.3739C87.1637 26.5071 77.7145 29.8688 65.9998 29.8688C54.2851 29.8688 44.8359 26.5071 44.8359 22.3739C44.8359 18.2406 54.2851 14.8789 65.9998 14.8789C77.7145 14.8789 87.1637 18.2406 87.1637 22.3739Z" fill="white"/>
<path opacity="0.54" d="M86.7772 22.3736C86.7772 26.3966 77.4938 29.7032 66.0554 29.7032C54.617 29.7032 45.2783 26.3966 45.2783 22.3736C45.2783 18.3505 54.5617 15.0439 66.0554 15.0439C77.5491 15.0439 86.7772 18.3505 86.7772 22.3736Z" fill="white"/>
<path opacity="0.55" d="M86.3897 22.3737C86.3897 26.3416 77.2721 29.5931 66.0547 29.5931C54.8373 29.5931 45.7197 26.3416 45.7197 22.3737C45.7197 18.4058 54.8373 15.1543 66.0547 15.1543C77.2721 15.1543 86.3897 18.3507 86.3897 22.3737Z" fill="white"/>
<path opacity="0.57" d="M86.0028 22.3744C86.0028 26.2872 77.051 29.4285 66.0546 29.4285C55.0583 29.4285 46.1064 26.2872 46.1064 22.3744C46.1064 18.4616 55.0583 15.3203 66.0546 15.3203C77.051 15.3203 86.0028 18.4616 86.0028 22.3744Z" fill="white"/>
<path opacity="0.59" d="M85.5612 22.3741C85.5612 26.1767 76.7752 29.318 65.9999 29.318C55.2245 29.318 46.4385 26.2318 46.4385 22.3741C46.4385 18.5164 55.2245 15.4854 65.9999 15.4854C76.7752 15.4854 85.5612 18.5715 85.5612 22.3741Z" fill="white"/>
<path opacity="0.61" d="M85.1744 22.3742C85.1744 26.1217 76.6093 29.1528 65.9998 29.1528C55.3902 29.1528 46.8252 26.1217 46.8252 22.3742C46.8252 18.6268 55.3902 15.5957 65.9998 15.5957C76.6093 15.5957 85.1744 18.6268 85.1744 22.3742Z" fill="white"/>
<path opacity="0.62" d="M84.7875 22.3739C84.7875 26.0112 76.3882 28.9872 65.9997 28.9872C55.6111 28.9872 47.2119 26.0112 47.2119 22.3739C47.2119 18.7367 55.6111 15.7607 65.9997 15.7607C76.3882 15.7607 84.7875 18.7367 84.7875 22.3739Z" fill="white"/>
<path opacity="0.64" d="M84.401 22.3741C84.401 25.9562 76.1675 28.8771 66.0553 28.8771C55.943 28.8771 47.6543 25.9562 47.6543 22.3741C47.6543 18.7919 55.8878 15.8711 66.0553 15.8711C76.2228 15.8711 84.401 18.7919 84.401 22.3741Z" fill="white"/>
<path opacity="0.66" d="M84.0135 22.3738C84.0135 25.9008 75.9458 28.7114 66.0546 28.7114C56.1634 28.7114 48.0957 25.8457 48.0957 22.3738C48.0957 18.9019 56.1634 16.0361 66.0546 16.0361C75.9458 16.0361 84.0135 18.9019 84.0135 22.3738Z" fill="white"/>
<path opacity="0.68" d="M83.6276 22.3739C83.6276 25.7907 75.7257 28.6014 66.0555 28.6014C56.3853 28.6014 48.4834 25.7907 48.4834 22.3739C48.4834 18.9571 56.3853 16.1465 66.0555 16.1465C75.7257 16.1465 83.6276 18.902 83.6276 22.3739Z" fill="white"/>
<path opacity="0.7" d="M83.185 22.3736C83.185 25.7353 75.5041 28.4357 65.9997 28.4357C56.4953 28.4357 48.8145 25.7353 48.8145 22.3736C48.8145 19.0119 56.4953 16.3115 65.9997 16.3115C75.5041 16.3115 83.185 19.0119 83.185 22.3736Z" fill="white"/>
<path opacity="0.71" d="M82.7981 22.3738C82.7981 25.6253 75.283 28.3257 65.9996 28.3257C56.7163 28.3257 49.2012 25.6804 49.2012 22.3738C49.2012 19.0672 56.7163 16.4219 65.9996 16.4219C75.283 16.4219 82.7981 19.0672 82.7981 22.3738Z" fill="white"/>
<path opacity="0.73" d="M82.4116 22.3744C82.4116 25.5708 75.0623 28.161 66.0552 28.161C57.0482 28.161 49.6436 25.5708 49.6436 22.3744C49.6436 19.1781 56.9929 16.5879 66.0552 16.5879C75.1176 16.5879 82.4116 19.1781 82.4116 22.3744Z" fill="white"/>
<path opacity="0.75" d="M82.0242 22.3746C82.0242 25.5158 74.8406 28.0509 66.0546 28.0509C57.2685 28.0509 50.085 25.5158 50.085 22.3746C50.085 19.2333 57.2685 16.6982 66.0546 16.6982C74.8406 16.6982 82.0242 19.2333 82.0242 22.3746Z" fill="white"/>
<path opacity="0.77" d="M81.6383 22.3743C81.6383 25.4053 74.6205 27.8853 66.0555 27.8853C57.4904 27.8853 50.4727 25.4053 50.4727 22.3743C50.4727 19.3432 57.4352 16.8633 66.0555 16.8633C74.6757 16.8633 81.6383 19.3432 81.6383 22.3743Z" fill="white"/>
<path opacity="0.79" d="M81.1957 22.374C81.1957 25.3499 74.3989 27.7748 65.9997 27.7748C57.6005 27.7748 50.8037 25.3499 50.8037 22.374C50.8037 19.398 57.6005 17.0283 65.9997 17.0283C74.3989 17.0283 81.1957 19.4532 81.1957 22.374Z" fill="white"/>
<path opacity="0.8" d="M80.8088 22.3741C80.8088 25.2398 74.1778 27.6096 65.9996 27.6096C57.8214 27.6096 51.1904 25.2398 51.1904 22.3741C51.1904 19.5084 57.8214 17.1387 65.9996 17.1387C74.1778 17.1387 80.8088 19.4533 80.8088 22.3741Z" fill="white"/>
<path opacity="0.82" d="M80.4223 22.3738C80.4223 25.1844 73.9571 27.444 66.0552 27.444C58.1533 27.444 51.6328 25.1844 51.6328 22.3738C51.6328 19.5632 58.098 17.3037 66.0552 17.3037C74.0124 17.3037 80.4223 19.5632 80.4223 22.3738Z" fill="white"/>
<path opacity="0.84" d="M80.0349 22.374C80.0349 25.1295 73.7354 27.3339 66.0545 27.3339C58.3737 27.3339 52.0742 25.1295 52.0742 22.374C52.0742 19.6185 58.3184 17.4141 66.0545 17.4141C73.7907 17.4141 80.0349 19.6185 80.0349 22.374Z" fill="white"/>
<path opacity="0.86" d="M79.6489 22.3737C79.6489 25.019 73.5705 27.1682 66.0554 27.1682C58.5403 27.1682 52.4619 25.019 52.4619 22.3737C52.4619 19.7284 58.5403 17.5791 66.0554 17.5791C73.5705 17.5791 79.6489 19.7284 79.6489 22.3737Z" fill="white"/>
<path opacity="0.88" d="M79.2064 22.3738C79.2064 24.964 73.2937 27.0582 65.9997 27.0582C58.7056 27.0582 52.793 24.964 52.793 22.3738C52.793 19.7836 58.7056 17.6895 65.9997 17.6895C73.2937 17.6895 79.2064 19.7836 79.2064 22.3738Z" fill="white"/>
<path opacity="0.89" d="M78.8195 22.3735C78.8195 24.8535 73.0726 26.8925 65.9996 26.8925C58.9265 26.8925 53.1797 24.8535 53.1797 22.3735C53.1797 19.8936 58.9265 17.8545 65.9996 17.8545C73.0726 17.8545 78.8195 19.8936 78.8195 22.3735Z" fill="white"/>
<path opacity="0.91" d="M78.4326 22.3736C78.4326 24.7985 72.8515 26.7824 65.9995 26.7824C59.1475 26.7824 53.5664 24.7985 53.5664 22.3736C53.5664 19.9488 59.1475 17.9648 65.9995 17.9648C72.8515 17.9648 78.4326 19.9488 78.4326 22.3736Z" fill="white"/>
<path opacity="0.93" d="M78.0461 22.3743C78.0461 24.7441 72.6308 26.6178 66.0551 26.6178C59.4793 26.6178 54.0088 24.689 54.0088 22.3743C54.0088 20.0597 59.3688 18.1309 66.0551 18.1309C72.7413 18.1309 78.0461 20.0597 78.0461 22.3743Z" fill="white"/>
<path opacity="0.95" d="M77.6596 22.3735C77.6596 24.633 72.4653 26.5067 66.0554 26.5067C59.6455 26.5067 54.4512 24.633 54.4512 22.3735C54.4512 20.114 59.6455 18.2402 66.0554 18.2402C72.4653 18.2402 77.6596 20.0589 77.6596 22.3735Z" fill="white"/>
<path opacity="0.96" d="M77.2727 22.3742C77.2727 24.5786 72.2442 26.3421 66.0553 26.3421C59.8664 26.3421 54.8379 24.5786 54.8379 22.3742C54.8379 20.1698 59.8664 18.4063 66.0553 18.4063C72.2442 18.4063 77.2727 20.1698 77.2727 22.3742Z" fill="white"/>
<path opacity="0.98" d="M76.8302 22.3739C76.8302 24.4681 71.9674 26.2316 65.9995 26.2316C60.0317 26.2316 55.1689 24.5232 55.1689 22.3739C55.1689 20.2246 60.0317 18.5713 65.9995 18.5713C71.9674 18.5713 76.8302 20.2797 76.8302 22.3739Z" fill="white"/>
<path d="M76.4433 22.374C76.4433 24.4131 71.7463 26.0664 65.9995 26.0664C60.2526 26.0664 55.5557 24.4131 55.5557 22.374C55.5557 20.3349 60.2526 18.6816 65.9995 18.6816C71.7463 18.6816 76.4433 20.3349 76.4433 22.374Z" fill="white"/>
</g>
<defs>
<linearGradient id="paint0_linear_2330_3361" x1="67.275" y1="10.1911" x2="67.275" y2="87.8415" gradientUnits="userSpaceOnUse">
<stop offset="0.0311914" stop-color="#CD2900"/>
<stop offset="0.311191" stop-color="#FF823A"/>
<stop offset="1" stop-color="#CD2900"/>
</linearGradient>
<linearGradient id="paint1_linear_2330_3361" x1="67.2155" y1="58.7471" x2="67.2155" y2="23.4767" gradientUnits="userSpaceOnUse">
<stop stop-color="#1C75BC"/>
<stop offset="0.02" stop-color="#2078BD"/>
<stop offset="0.38" stop-color="#7EB1D9"/>
<stop offset="0.68" stop-color="#C3DBED"/>
<stop offset="0.89" stop-color="#EEF5FA"/>
<stop offset="1" stop-color="white"/>
</linearGradient>
<linearGradient id="paint2_linear_2330_3361" x1="67.2708" y1="72.9106" x2="67.2708" y2="108.181" gradientUnits="userSpaceOnUse">
<stop stop-color="#1C75BC"/>
<stop offset="0.38" stop-color="#1D76BC"/>
<stop offset="0.52" stop-color="#247ABE"/>
<stop offset="0.62" stop-color="#3081C2"/>
<stop offset="0.7" stop-color="#418BC7"/>
<stop offset="0.76" stop-color="#5799CD"/>
<stop offset="0.82" stop-color="#72A9D5"/>
<stop offset="0.88" stop-color="#93BDDF"/>
<stop offset="0.93" stop-color="#B8D4EA"/>
<stop offset="0.97" stop-color="#E1EDF6"/>
<stop offset="1" stop-color="white"/>
</linearGradient>
<linearGradient id="paint3_linear_2330_3361" x1="67.215" y1="127.579" x2="67.215" y2="5.78613" gradientUnits="userSpaceOnUse">
<stop stop-color="#FFFF99"/>
<stop offset="0.11" stop-color="#FFFF6D"/>
<stop offset="0.21" stop-color="#FFFF4D"/>
<stop offset="0.38" stop-color="#EADC3B"/>
<stop offset="0.81" stop-color="#B98810"/>
<stop offset="1" stop-color="#A66800"/>
</linearGradient>
<linearGradient id="paint4_linear_2330_3361" x1="67.2155" y1="132.815" x2="67.2155" y2="0.550781" gradientUnits="userSpaceOnUse">
<stop stop-color="#A16900"/>
<stop offset="0.08" stop-color="#A56F00"/>
<stop offset="0.19" stop-color="#B38300"/>
<stop offset="0.32" stop-color="#C8A200"/>
<stop offset="0.47" stop-color="#E6CE00"/>
<stop offset="0.58" stop-color="#FFF200"/>
<stop offset="0.78" stop-color="#FFF54B"/>
<stop offset="1" stop-color="#FFFA99"/>
</linearGradient>
<linearGradient id="paint5_linear_2330_3361" x1="67.2153" y1="130.72" x2="67.2153" y2="2.64453" gradientUnits="userSpaceOnUse">
<stop stop-color="#BF7D0A"/>
<stop offset="0.01" stop-color="#CC9010"/>
<stop offset="0.04" stop-color="#DEAB1A"/>
<stop offset="0.07" stop-color="#EDC021"/>
<stop offset="0.1" stop-color="#F7CF26"/>
<stop offset="0.13" stop-color="#FDD82A"/>
<stop offset="0.19" stop-color="#FFDB2B"/>
<stop offset="0.21" stop-color="#F5CF27"/>
<stop offset="0.28" stop-color="#DFB21E"/>
<stop offset="0.35" stop-color="#CE9E18"/>
<stop offset="0.42" stop-color="#C59214"/>
<stop offset="0.49" stop-color="#C28E13"/>
<stop offset="0.5" stop-color="#CCA01D"/>
<stop offset="0.51" stop-color="#DCBA2B"/>
<stop offset="0.52" stop-color="#E9D038"/>
<stop offset="0.54" stop-color="#F2E141"/>
<stop offset="0.55" stop-color="#F9ED48"/>
<stop offset="0.58" stop-color="#FDF44B"/>
<stop offset="0.65" stop-color="#FFF64D"/>
<stop offset="0.7" stop-color="#F4DE3D"/>
<stop offset="0.79" stop-color="#E5BA25"/>
<stop offset="0.86" stop-color="#DCA416"/>
<stop offset="0.9" stop-color="#D99D11"/>
<stop offset="0.92" stop-color="#E6BD26"/>
<stop offset="0.94" stop-color="#F1D637"/>
<stop offset="0.96" stop-color="#F8E743"/>
<stop offset="0.98" stop-color="#FDF24A"/>
<stop offset="1" stop-color="#FFF64D"/>
</linearGradient>
<linearGradient id="paint6_linear_2330_3361" x1="19.7872" y1="39.1462" x2="30.9055" y2="56.7324" gradientUnits="userSpaceOnUse">
<stop stop-color="white"/>
<stop offset="0.67" stop-color="#F4705E"/>
<stop offset="1" stop-color="#E36767"/>
</linearGradient>
</defs>
</svg>
